<svg fill="none" height="15" viewBox="0 0 24 15" width="24" xmlns="http://www.w3.org/2000/svg"><path d="m10.2075.428596-1.91625 1.903154c-.57375.15643-1.10625.4432-1.55625.83799l-.9975.88267c-.3825.33892-.88125.52514-1.395.52514h-.7425v4.7672c.765.02235 1.4925.33147 2.03625.87155l1.335 1.3258.2625.2607 1.0125 1.0056c.2325.2309.615.2309.8475 0 .06375-.0633.1125-.1378.13875-.216.105-.2868.34875-.5028.64875-.5698.30005-.0671.61505.0223.83255.2421l.405.3947c.435.4321 1.14.4321 1.5712 0 .2025-.2011.3113-.4581.3225-.7225.015-.3277.21-.6182.51-.7598.3-.1415.6488-.1117.915.0783.3525.2495.8438.216 1.1588-.0969.3525-.3501.3525-.9162 0-1.26254l-2.8425-2.82308-1.3426 1.22905c-1.0237.93854-2.59495.95344-3.63745.03352-1.18875-1.05028-1.215-2.88267-.06-3.96646l2.62875-2.46554c1.0275-.96089 2.385-1.4972 3.7988-1.4972 1.3537 0 2.6625.495342 3.6712 1.38547l1.1288.99813h1.4587 1.5 1.5c.33 0 .6.26816.6.5959v7.74675c0 .6592-.5362 1.1918-1.2 1.1918h-1.2c-.4425 0-.8325-.2384-1.0387-.5959h-3.1838c-.1275.2495-.2962.4878-.5062.6964-.6413.6369-1.53.8864-2.3625.7486-.135.2719-.3188.5251-.5475.7523-1.0238 1.0168-2.625 1.1173-3.765.3017-.9413.7747-2.3438.7263-3.22505-.1527l-1.00875-1.0056-.2625-.2607-1.335-1.3259c-.20625-.2048-.47625-.324-.765-.3463 0 .6555-.54 1.1881-1.2 1.1881h-1.2c-.66375 0-1.2-.5326-1.2-1.1918v-7.74675c0-.32774.27-.5959.6-.5959h1.5 1.5.7425c.075 0 .14625-.02607.19875-.07449l.99375-.87895c1.04625-.91992 2.3925-1.43016 3.79125-1.43016h.38625c.165 0 .3338.007449.495.022346zm10.1925 9.512054v-5.3631h-1.8c-.2212 0-.435-.08194-.5962-.22719l-1.3838-1.22159c-.6825-.60335-1.5637-.93482-2.4787-.93482-.9525 0-1.8675.36127-2.5613 1.00931l-2.62875 2.46553c-.38625.36499-.37875.97951.01875 1.32961.34875.30912.8775.30167 1.2188-.01118l2.6962-2.47298c.3638-.3352.9338-.31285 1.2713.05214s.315.92737-.0525 1.26256l-.03.0298 2.79 2.77093c.375.37244.6187.83054.7275 1.30726h2.8087zm-18 .59595c0-.1581-.06321-.3097-.17574-.4214-.11252-.1118-.26513-.17455-.42426-.17455s-.31174.06275-.42426.17455c-.11253.1117-.17574.2633-.17574.4214 0 .158.06321.3096.17574.4213.11252.1118.26513.1746.42426.1746s.31174-.0628.42426-.1746c.11253-.1117.17574-.2633.17574-.4213zm19.8.5959c.1591 0 .3117-.0628.4243-.1746.1125-.1117.1757-.2633.1757-.4213 0-.1581-.0632-.3097-.1757-.4214-.1126-.1118-.2652-.17455-.4243-.17455s-.3117.06275-.4243.17455c-.1125.1117-.1757.2633-.1757.4214 0 .158.0632.3096.1757.4213.1126.1118.2652.1746.4243.1746z" fill="#fff"/></svg>