<svg fill="none" height="18" viewBox="0 0 17 18" width="17" xmlns="http://www.w3.org/2000/svg"><path d="m13.8125 7.04143c0 1.51361-.4947 2.91181-1.3281 4.04617l4.2035 4.1781c.415.4122.415 1.0816 0 1.4938s-1.0891.4122-1.5041 0l-4.2035-4.1781c-1.14222.831-2.55003 1.3191-4.07405 1.3191-3.81504 0-6.90625-3.0701-6.90625-6.85907s3.09121-6.859057 6.90625-6.859057c3.81505 0 6.90625 3.070087 6.90625 6.859057zm-6.90625 4.74857c.62788 0 1.24962-.1228 1.8297-.3615.58009-.2386 1.10717-.5884 1.55115-1.0293.444-.44096.7962-.96444 1.0364-1.54057.2403-.57612.364-1.19361.364-1.8172s-.1237-1.24108-.364-1.8172c-.2402-.57612-.5924-1.0996-1.0364-1.54055-.44398-.44095-.97106-.79072-1.55115-1.02936-.58008-.23864-1.20182-.36147-1.8297-.36147s-1.24962.12283-1.82971.36147c-.58008.23864-1.10716.58841-1.55114 1.02936s-.79617.96443-1.03645 1.54055-.36395 1.19361-.36395 1.8172.12367 1.24108.36395 1.8172c.24028.57613.59247 1.09961 1.03645 1.54057.44398.4409.97106.7907 1.55114 1.0293.58009.2387 1.20183.3615 1.82971.3615z" fill="#fff"/></svg>