<svg fill="none" height="17" viewBox="0 0 16 17" width="16" xmlns="http://www.w3.org/2000/svg"><path d="m.502817 8.41785c-.70625.40037-.640625 1.46802.1125 1.77835l4.384373 1.8157v3.206c0 .5618.45625 1.0149 1.02188 1.0149.30312 0 .59062-.1334.78437-.3662l1.9375-2.306 3.87186 1.6015c.5906.2452 1.275-.1397 1.3719-.7666l2-12.9112c.0594-.37554-.1063-.754184-.4219-.968336s-.7281-.232774-1.0625-.043451zm1.628123.79143 10.67186-6.05522-6.86248 7.61634.0375.031zm10.47186 4.33582-5.20623-2.1571 6.69063-7.42699z" fill="#fff"/></svg>