<svg fill="none" height="21" viewBox="0 0 20 21" width="20" xmlns="http://www.w3.org/2000/svg"><path d="m17.9441 6.40799c.0127.17645.0127.35293.0127.52937 0 5.38174-4.1243 11.58274-11.66239 11.58274-2.32234 0-4.47968-.668-6.29441-1.8275.329961.0378.647187.0504.989844.0504 1.916206 0 3.680196-.6428 5.088826-1.7393-1.80203-.0378-3.31219-1.21-3.8325-2.8232.25383.0378.50762.063.77414.063.36801 0 .73606-.0505 1.07867-.1386-1.87816-.3782-3.286832-2.0166-3.286832-3.99541v-.0504c.545662.30249 1.180232.49154 1.852772.51672-1.10406-.73102-1.827381-1.97877-1.827381-3.39038 0-.75621.203011-1.44941.558361-2.05438 2.01777 2.47031 5.05078 4.08354 8.45176 4.26002-.06344-.30249-.10153-.61754-.10153-.93264 0-2.24347 1.82747-4.07098 4.09897-4.07098 1.1802 0 2.2462.49154 2.9949 1.28557.9264-.17644 1.8147-.51676 2.6016-.98308-.3046.94529-.9518 1.73932-1.8021 2.24343.8249-.08818 1.6244-.3151 2.3604-.63015-.5583.80659-1.2563 1.52497-2.0558 2.10477z" fill="#fff"/></svg>