<svg fill="none" height="16" viewBox="0 0 20 16" width="20" xmlns="http://www.w3.org/2000/svg"><path d="m2.5 2.28406c-.34375 0-.625.27933-.625.62073v.85738l6.73828 5.49346c.8086.65952 1.96872.65952 2.77732 0l6.7344-5.49346v-.85738c0-.3414-.2812-.62073-.625-.62073zm-.625 3.88732v6.66512c0 .3414.28125.6207.625.6207h15c.3438 0 .625-.2793.625-.6207v-6.66512l-5.5469 4.52352c-1.5 1.2221-3.66013 1.2221-5.15622 0zm-1.875-3.26659c0-1.36948 1.12109-2.482915 2.5-2.482915h15c1.3789 0 2.5 1.113435 2.5 2.482915v9.93171c0 1.3694-1.1211 2.4829-2.5 2.4829h-15c-1.37891 0-2.5-1.1135-2.5-2.4829z" fill="#4a4a4a"/></svg>