<svg fill="none" height="66" viewBox="0 0 49 66" width="49" xmlns="http://www.w3.org/2000/svg" xmlns:xlink="http://www.w3.org/1999/xlink"><clipPath id="a"><path d="m0 0h49v66h-49z"/></clipPath><g clip-path="url(#a)"><path d="m8.16667 0c-4.50443 0-8.16667 3.69961-8.16667 8.25v49.5c0 4.5504 3.66224 8.25 8.16667 8.25h32.66663c4.5045 0 8.1667-3.6996 8.1667-8.25v-49.5c0-4.55039-3.6622-8.25-8.1667-8.25zm4.08333 8.25h24.5c2.2586 0 4.0833 1.8434 4.0833 4.125v4.125c0 2.2816-1.8247 4.125-4.0833 4.125h-24.5c-2.25859 0-4.08333-1.8434-4.08333-4.125v-4.125c0-2.2816 1.82474-4.125 4.08333-4.125zm4.0833 20.625c0 1.094-.4302 2.1432-1.1959 2.9168-.7658.7736-1.8044 1.2082-2.8874 1.2082s-2.1216-.4346-2.88735-1.2082c-.76578-.7736-1.19598-1.8228-1.19598-2.9168s.4302-2.1432 1.19598-2.9168c.76575-.7736 1.80435-1.2082 2.88735-1.2082s2.1216.4346 2.8874 1.2082c.7657.7736 1.1959 1.8228 1.1959 2.9168zm-4.0833 16.5c-1.083 0-2.1216-.4346-2.88735-1.2082-.76578-.7736-1.19598-1.8228-1.19598-2.9168s.4302-2.1432 1.19598-2.9168c.76575-.7736 1.80435-1.2082 2.88735-1.2082s2.1216.4346 2.8874 1.2082c.7657.7736 1.1959 1.8228 1.1959 2.9168s-.4302 2.1432-1.1959 2.9168c-.7658.7736-1.8044 1.2082-2.8874 1.2082zm-4.08333 8.25c0-2.2816 1.82474-4.125 4.08333-4.125h12.25c2.2586 0 4.0833 1.8434 4.0833 4.125s-1.8247 4.125-4.0833 4.125h-12.25c-2.25859 0-4.08333-1.8434-4.08333-4.125zm16.33333-20.625c-1.083 0-2.1216-.4346-2.8874-1.2082-.7657-.7736-1.1959-1.8228-1.1959-2.9168s.4302-2.1432 1.1959-2.9168c.7658-.7736 1.8044-1.2082 2.8874-1.2082s2.1216.4346 2.8874 1.2082c.7657.7736 1.1959 1.8228 1.1959 2.9168s-.4302 2.1432-1.1959 2.9168c-.7658.7736-1.8044 1.2082-2.8874 1.2082zm4.0833 8.25c0 1.094-.4302 2.1432-1.1959 2.9168-.7658.7736-1.8044 1.2082-2.8874 1.2082s-2.1216-.4346-2.8874-1.2082c-.7657-.7736-1.1959-1.8228-1.1959-2.9168s.4302-2.1432 1.1959-2.9168c.7658-.7736 1.8044-1.2082 2.8874-1.2082s2.1216.4346 2.8874 1.2082c.7657.7736 1.1959 1.8228 1.1959 2.9168zm8.1667-8.25c-1.083 0-2.1216-.4346-2.8874-1.2082-.7657-.7736-1.1959-1.8228-1.1959-2.9168s.4302-2.1432 1.1959-2.9168c.7658-.7736 1.8044-1.2082 2.8874-1.2082s2.1216.4346 2.8874 1.2082c.7657.7736 1.1959 1.8228 1.1959 2.9168s-.4302 2.1432-1.1959 2.9168c-.7658.7736-1.8044 1.2082-2.8874 1.2082zm4.0833 8.25c0 1.094-.4302 2.1432-1.1959 2.9168-.7658.7736-1.8044 1.2082-2.8874 1.2082s-2.1216-.4346-2.8874-1.2082c-.7657-.7736-1.1959-1.8228-1.1959-2.9168s.4302-2.1432 1.1959-2.9168c.7658-.7736 1.8044-1.2082 2.8874-1.2082s2.1216.4346 2.8874 1.2082c.7657.7736 1.1959 1.8228 1.1959 2.9168zm-4.0833 16.5c-1.083 0-2.1216-.4346-2.8874-1.2082-.7657-.7736-1.1959-1.8228-1.1959-2.9168s.4302-2.1432 1.1959-2.9168c.7658-.7736 1.8044-1.2082 2.8874-1.2082s2.1216.4346 2.8874 1.2082c.7657.7736 1.1959 1.8228 1.1959 2.9168s-.4302 2.1432-1.1959 2.9168c-.7658.7736-1.8044 1.2082-2.8874 1.2082z" fill="#7f7f7f"/></g></svg>