<svg fill="none" height="69" viewBox="0 0 86 69" width="86" xmlns="http://www.w3.org/2000/svg"><path d="m8.6 12.8999c0-4.74341 3.8566-8.59997 8.6-8.59997h51.6c4.7434 0 8.6 3.85656 8.6 8.59997v34.4h-8.6v-34.4h-51.6v34.4h-8.6zm-8.6 41.28c0-1.4243 1.15563-2.58 2.58-2.58h80.84c1.4244 0 2.58 1.1557 2.58 2.58 0 5.6975-4.6225 10.32-10.32 10.32h-65.36c-5.6975 0-10.32-4.6225-10.32-10.32zm37.7594-26.0956-4.1656 4.1656 4.1656 4.1657c1.2631 1.2631 1.2631 3.3056 0 4.5553s-3.3056 1.2631-4.5553 0l-6.45-6.45c-1.2632-1.2632-1.2632-3.3057 0-4.5553l6.45-6.45c1.2631-1.2632 3.3056-1.2632 4.5553 0 1.2497 1.2631 1.2631 3.3056 0 4.5553zm15.05-4.5687 6.45 6.45c1.2631 1.2631 1.2631 3.3056 0 4.5553l-6.45 6.45c-1.2631 1.2631-3.3056 1.2631-4.5553 0-1.2497-1.2632-1.2632-3.3057 0-4.5553l4.1656-4.1657-4.1656-4.1656c-1.2632-1.2631-1.2632-3.3056 0-4.5553 1.2631-1.2497 3.3056-1.2631 4.5553 0z" fill="#7f7f7f"/></svg>