<svg fill="none" height="64" viewBox="0 0 64 64" width="64" xmlns="http://www.w3.org/2000/svg" xmlns:xlink="http://www.w3.org/1999/xlink"><clipPath id="a"><path d="m0 0h64v64h-64z"/></clipPath><g clip-path="url(#a)"><path d="m54 6h-28c-2.2125 0-4 1.7875-4 4v2h-6v-2c0-5.525 4.475-10 10-10h28c5.525 0 10 4.475 10 10v28c0 5.525-4.475 10-10 10h-2v-6h2c2.2125 0 4-1.7875 4-4v-28c0-2.2125-1.7875-4-4-4zm-48 50c0 1.1.9 2 2 2h32c1.1 0 2-.9 2-2v-24h-36zm2-40h32c4.4125 0 8 3.5875 8 8v32c0 4.4125-3.5875 8-8 8h-32c-4.4125 0-8-3.5875-8-8v-32c0-4.4125 3.5875-8 8-8z" fill="#7f7f7f"/></g></svg>