<svg fill="none" height="57" viewBox="0 0 55 57" width="55" xmlns="http://www.w3.org/2000/svg" xmlns:xlink="http://www.w3.org/1999/xlink"><clipPath id="a"><path d="m0 0h55v56.8966h-55z"/></clipPath><g clip-path="url(#a)"><path d="m37.8125 35.5603c9.4961 0 17.1875-7.9566 17.1875-17.7801 0-1.7003-.2363-3.3449-.666-4.9118-.333-1.2002-1.7617-1.4669-2.6104-.589l-8.25 8.5345c-.3222.3334-.7627.5223-1.2138.5223h-6.166c-.9454 0-1.7188-.8001-1.7188-1.778v-6.3786c0-.4668.1826-.9224.5049-1.2558l8.25-8.53445c.8486-.8779.5801-2.35588-.5694-2.700368-1.5146-.444505-3.1044-.688982-4.748-.688982-9.4961 0-17.1875 7.95663-17.1875 17.7802 0 2.1225.3652 4.1672 1.0205 6.0563l-19.5078 20.1805c-1.364263 1.4113-2.1377 3.3338-2.1377 5.3341 0 4.1672 3.26563 7.5455 7.29395 7.5455 1.93359 0 3.79195-.8002 5.15625-2.2115l19.5078-20.1805c1.8262.689 3.8027 1.0557 5.8545 1.0557zm-29.21875 9.7791c.68376 0 1.33952.281 1.82305.7812.4835.5002.7551 1.1785.7551 1.8859 0 .7073-.2716 1.3857-.7551 1.8858-.48353.5002-1.13929.7812-1.82305.7812s-1.33952-.281-1.82301-.7812c-.48349-.5001-.75512-1.1785-.75512-1.8858 0-.7074.27163-1.3857.75512-1.8859s1.13925-.7812 1.82301-.7812z" fill="#808080"/></g></svg>