<svg fill="none" height="66" viewBox="0 0 66 66" width="66" xmlns="http://www.w3.org/2000/svg" xmlns:xlink="http://www.w3.org/1999/xlink"><clipPath id="a"><path d="m0 0h66v66h-66z"/></clipPath><g clip-path="url(#a)"><path d="m33 6.1875c7.1111 0 13.931 2.82488 18.9593 7.8532 5.0283 5.0283 7.8532 11.8482 7.8532 18.9593s-2.8249 13.931-7.8532 18.9593-11.8482 7.8532-18.9593 7.8532-13.931-2.8249-18.9593-7.8532c-5.02832-5.0283-7.8532-11.8482-7.8532-18.9593s2.82488-13.931 7.8532-18.9593c5.0283-5.02832 11.8482-7.8532 18.9593-7.8532zm0 59.8125c8.7521 0 17.1458-3.4768 23.3345-9.6655s9.6655-14.5824 9.6655-23.3345-3.4768-17.1458-9.6655-23.33452c-6.1887-6.1887-14.5824-9.66548-23.3345-9.66548s-17.1458 3.47678-23.33452 9.66548c-6.1887 6.18872-9.66548 14.58242-9.66548 23.33452s3.47678 17.1458 9.66548 23.3345c6.18872 6.1887 14.58242 9.6655 23.33452 9.6655zm14.5664-39.0586c1.2117-1.2117 1.2117-3.1711 0-4.3699s-3.1711-1.2117-4.3699 0l-14.3086 14.3086-6.0586-6.0586c-1.2117-1.2117-3.1711-1.2117-4.3699 0-1.1989 1.2117-1.2117 3.1711 0 4.3699l8.25 8.25c1.2117 1.2117 3.1711 1.2117 4.3699 0z" fill="#7f7f7f"/></g></svg>